PLOT:
Tricked into thinking he killed his father, a guilt ridden lion cub flees into exile and abandons his identity as the future King.

INFO:
Format                           : Matroska
Format version                   : Version 2
File size                        : 8.59 GiB
Duration                         : 1h 28mn
Overall bit rate                 : 13.9 Mbps
Writing application              : HandBrake 0.9.5
Writing library                  : libmkv 0.6.4.1

Video
ID                               : 1
Format                           : AVC
Format/Info                      : Advanced Video Codec
Format profile                   : High@L5.0
Format settings, CABAC           : Yes
Format settings, ReFrames        : 6 frames
Codec ID                         : V_MPEG4/ISO/AVC
Duration                         : 1h 28mn
Bit rate                         : 12.1 Mbps

Width                            : 1 920 pixels
Height                           : 1 080 pixels

Display aspect ratio             : 16:9
Frame rate mode                  : Variable
Frame rate                       : 23.976 fps
Color space                      : YUV
Chroma subsampling               : 4:2:0
Bit depth                        : 8 bits
Scan type                        : Progressive
Bits/(Pixel*Frame)               : 0.244
Stream size                      : 7.49 GiB (87%)
Writing library                  : x264 core 112

Encoding settings                : cabac=1 / ref=6 / deblock=1:0:0 / analyse=0x3:0x113 / me=tesa / subme=10 / psy=1 / psy_rd=1.00:0.00 / mixed_ref=1 / me_range=24 / chroma_me=1 / trellis=2 / 8x8dct=1 / cqm=0 / deadzone=21,11 / fast_pskip=1 / chroma_qp_offset=-2 / threads=18 / sliced_threads=0 / nr=0 / decimate=1 / interlaced=0 / constrained_intra=0 / bframes=5 / b_pyramid=2 / b_adapt=2 / b_bias=0 / direct=1 / weightb=1 / open_gop=0 / weightp=2 / keyint=240 / keyint_min=23 / scenecut=40 / intra_refresh=0 / rc_lookahead=50 / rc=crf / mbtree=1 / crf=13.0 / qcomp=0.60 / qpmin=3 / qpmax=51 / qpstep=4 / ip_ratio=1.40 / aq=1:1.00

Language                         : English
Color primaries                  : BT.709-5, BT.1361, IEC 61966-2-4, SMPTE RP177
Transfer characteristics         : BT.709-5, BT.1361
Matrix coefficients              : BT.709-5, BT.1361, IEC 61966-2-4 709, SMPTE RP177

Audio
ID                               : 2
Format                           : DTS
Format/Info                      : Digital Theater Systems
Codec ID                         : A_DTS
Duration                         : 1h 28mn
Bit rate mode                    : Constant
Bit rate                         : 1 510 Kbps
Channel(s)                       : 6 channels
Channel positions                : Front: L C R, Side: L R, LFE
Sampling rate                    : 48.0 KHz
Bit depth                        : 24 bits
Compression mode                 : Lossy
Stream size                      : 954 MiB (11%)

Menu
00:00:00.000                     : Chapter 1
00:04:40.071                     : Chapter 2
00:08:10.406                     : Chapter 3
00:11:28.979                     : Chapter 4
00:14:09.557                     : Chapter 5
00:17:51.028                     : Chapter 6
00:22:54.748                     : Chapter 7
00:25:36.117                     : Chapter 8
00:30:24.197                     : Chapter 9
00:35:52.233                     : Chapter 10
00:40:14.078                     : Chapter 11
00:41:14.430                     : Chapter 12
00:44:16.945                     : Chapter 13
00:48:20.564                     : Chapter 14
00:50:07.212                     : Chapter 15
00:53:14.774                     : Chapter 16
00:57:50.842                     : Chapter 17
01:00:56.569                     : Chapter 18
01:02:32.331                     : Chapter 19
01:08:49.625                     : Chapter 20
01:12:41.023                     : Chapter 21
01:16:42.305                     : Chapter 22
01:20:45.131                     : Chapter 23
01:23:23.873                     : Chapter 24

                               (LiG)